<mxfile host="65bd71144e">
    <diagram id="8tBCo-Jt2KXwqOIFsZ1j" name="Page-1">
        <mxGraphModel dx="590" dy="561" grid="1" gridSize="10" guides="1" tooltips="1" connect="1" arrows="1" fold="1" page="1" pageScale="1" pageWidth="850" pageHeight="1100" math="0" shadow="0">
            <root>
                <mxCell id="0"/>
                <mxCell id="1" parent="0"/>
                <mxCell id="2" value="«interface»&lt;br&gt;&lt;b&gt;Name&lt;/b&gt;" style="html=1;fontColor=#006EAF;fillColor=none;strokeColor=#006EAF;" vertex="1" parent="1">
                    <mxGeometry x="220" y="40" width="120" height="60" as="geometry"/>
                </mxCell>
                <mxCell id="3" value="" style="rounded=0;orthogonalLoop=1;jettySize=auto;html=1;endArrow=none;endFill=0;sketch=0;sourcePerimeterSpacing=0;targetPerimeterSpacing=0;fontColor=#006EAF;fillColor=#1ba1e2;strokeColor=#006EAF;" edge="1" parent="1" source="6">
                    <mxGeometry relative="1" as="geometry">
                        <mxPoint x="290" y="295" as="sourcePoint"/>
                        <mxPoint x="210" y="150" as="targetPoint"/>
                    </mxGeometry>
                </mxCell>
                <mxCell id="4" value="" style="rounded=0;orthogonalLoop=1;jettySize=auto;html=1;endArrow=halfCircle;endFill=0;entryX=0.5;entryY=0.5;endSize=6;strokeWidth=1;sketch=0;fontColor=#006EAF;fillColor=#1ba1e2;strokeColor=#006EAF;" edge="1" target="5" parent="1">
                    <mxGeometry relative="1" as="geometry">
                        <mxPoint x="280" y="150" as="sourcePoint"/>
                    </mxGeometry>
                </mxCell>
                <mxCell id="5" value="" style="ellipse;whiteSpace=wrap;html=1;align=center;aspect=fixed;resizable=0;points=[];outlineConnect=0;sketch=0;fontColor=#ffffff;fillColor=#1ba1e2;strokeColor=#006EAF;" vertex="1" parent="1">
                    <mxGeometry x="210" y="145" width="10" height="10" as="geometry"/>
                </mxCell>
                <mxCell id="6" value="«component»&lt;br&gt;&lt;b&gt;Exposing&lt;/b&gt;" style="html=1;fontColor=#006EAF;fillColor=none;strokeColor=#006EAF;" vertex="1" parent="1">
                    <mxGeometry x="40" y="120" width="120" height="60" as="geometry"/>
                </mxCell>
                <mxCell id="7" value="«component»&lt;br&gt;&lt;b&gt;Consuming&lt;/b&gt;" style="html=1;fontColor=#006EAF;fillColor=none;strokeColor=#006EAF;" vertex="1" parent="1">
                    <mxGeometry x="280" y="120" width="120" height="60" as="geometry"/>
                </mxCell>
                <mxCell id="8" value="«component»&lt;br&gt;&lt;b&gt;Exposing&lt;/b&gt;" style="html=1;fontColor=#006EAF;fillColor=none;strokeColor=#006EAF;" vertex="1" parent="1">
                    <mxGeometry x="40" y="40" width="120" height="60" as="geometry"/>
                </mxCell>
                <mxCell id="9" value="" style="endArrow=block;html=1;rounded=0;align=center;verticalAlign=bottom;endFill=0;labelBackgroundColor=none;endSize=8;fontColor=#006EAF;fillColor=#1ba1e2;strokeColor=#006EAF;" edge="1" parent="1" source="8" target="2">
                    <mxGeometry relative="1" as="geometry">
                        <mxPoint x="160" y="300" as="sourcePoint"/>
                        <mxPoint x="320" y="300" as="targetPoint"/>
                    </mxGeometry>
                </mxCell>
                <mxCell id="10" value="" style="resizable=0;html=1;align=center;verticalAlign=top;labelBackgroundColor=none;fontColor=#006EAF;" connectable="0" vertex="1" parent="9">
                    <mxGeometry relative="1" as="geometry"/>
                </mxCell>
                <mxCell id="11" value="«component»&lt;br&gt;&lt;b&gt;Consuming&lt;/b&gt;" style="html=1;fontColor=#006EAF;fillColor=none;strokeColor=#006EAF;" vertex="1" parent="1">
                    <mxGeometry x="400" y="40" width="120" height="60" as="geometry"/>
                </mxCell>
                <mxCell id="12" value="" style="endArrow=open;html=1;rounded=0;align=center;verticalAlign=bottom;dashed=1;endFill=0;labelBackgroundColor=none;fontColor=#006EAF;fillColor=#1ba1e2;strokeColor=#006EAF;" edge="1" parent="1" source="11" target="2">
                    <mxGeometry relative="1" as="geometry">
                        <mxPoint x="210" y="280" as="sourcePoint"/>
                        <mxPoint x="370" y="280" as="targetPoint"/>
                    </mxGeometry>
                </mxCell>
                <mxCell id="13" value="" style="resizable=0;html=1;align=center;verticalAlign=top;labelBackgroundColor=none;fontColor=#006EAF;" connectable="0" vertex="1" parent="12">
                    <mxGeometry relative="1" as="geometry"/>
                </mxCell>
            </root>
        </mxGraphModel>
    </diagram>
</mxfile>